<?xml version="1.0" standalone="no"?><!DOCTYPE svg PUBLIC "-//W3C//DTD SVG 1.1//EN" "http://www.w3.org/Graphics/SVG/1.1/DTD/svg11.dtd"><svg t="1548607766784" class="icon" style="" viewBox="0 0 1024 1024" version="1.1" xmlns="http://www.w3.org/2000/svg" p-id="918" xmlns:xlink="http://www.w3.org/1999/xlink" width="200" height="200"><defs><style type="text/css"></style></defs><path d="M420.206594 471.935475a92.155653 92.155653 0 0 0-48.10641 3.187774 82.737229 82.737229 0 0 0-38.108391 27.530777 11.302108 11.302108 0 0 1-19.996038-8.838829 33.761426 33.761426 0 0 0 0-5.216357 41.151266 41.151266 0 0 0-4.491864-14.489883 64.624876 64.624876 0 0 0-40.861468-30.86345c-4.92656-1.014292-8.404132 0-12.316401-0.869393a11.302108 11.302108 0 0 1-8.983727-14.489882 72.449413 72.449413 0 0 0-2.753078-38.977784 70.420829 70.420829 0 0 0-23.763407-31.587944 11.302108 11.302108 0 0 1 11.012311-19.561342 69.841234 69.841234 0 0 0 39.267582 4.781662 72.449413 72.449413 0 0 0 35.210414-17.098062 11.15721 11.15721 0 0 1 16.953163 0c2.46328 3.042875 3.477572 6.520447 6.810245 10.287817a64.624876 64.624876 0 0 0 47.092118 19.851139 39.412481 39.412481 0 0 0 15.214377-3.622471 36.079808 36.079808 0 0 0 4.491863-2.608179 11.302108 11.302108 0 0 1 17.677657 13.040895 83.316825 83.316825 0 0 0-4.781661 46.657421 92.300552 92.300552 0 0 0 21.300127 43.469648A11.15721 11.15721 0 0 1 434.696477 463.676242a12.026603 12.026603 0 0 1-1.159191 3.332673 12.461299 12.461299 0 0 1-2.318381 2.897976 11.302108 11.302108 0 0 1-10.722513 2.318381z m102.298571 139.102872a91.720957 91.720957 0 0 0 26.806283 39.992076 82.737229 82.737229 0 0 0 43.469647 19.271544 11.302108 11.302108 0 0 1 9.708222 12.751097 11.15721 11.15721 0 0 1-7.244942 8.983727 32.167539 32.167539 0 0 0-4.491863 2.753077 39.847177 39.847177 0 0 0-10.722513 11.302109 64.624876 64.624876 0 0 0-6.23065 50.714589c1.593887 4.781661 4.057167 7.38984 5.506155 11.01231a11.15721 11.15721 0 0 1-4.057167 13.185794 9.998019 9.998019 0 0 1-3.912268 1.738785 72.449413 72.449413 0 0 0-32.457337 21.879723 69.986133 69.986133 0 0 0-15.504174 36.369605 11.302108 11.302108 0 0 1-22.314419 0 69.841234 69.841234 0 0 0-15.359276-36.369605A72.449413 72.449413 0 0 0 452.80883 782.453658a10.287817 10.287817 0 0 1-3.76737-1.738786 11.15721 11.15721 0 0 1-4.202066-12.751097c1.448988-3.622471 3.912268-6.230649 5.506156-11.01231a64.769775 64.769775 0 0 0-6.23065-50.714589 39.847177 39.847177 0 0 0-10.722513-11.302109 37.238998 37.238998 0 0 0-4.491863-2.753077 11.302108 11.302108 0 0 1 2.46328-21.734824 82.737229 82.737229 0 0 0 43.469647-19.271544 91.720957 91.720957 0 0 0 26.806283-39.992076 11.302108 11.302108 0 0 1 7.38984-8.114334 11.447007 11.447007 0 0 1 3.622471 0 11.591906 11.591906 0 0 1 3.62247 0 11.302108 11.302108 0 0 1 7.38984 8.114334z m-91.28626-39.992076a11.15721 11.15721 0 0 0 3.332673-10.432715 12.026603 12.026603 0 0 0-1.159191-3.332673 11.302108 11.302108 0 0 0-13.040894-5.216358 92.300552 92.300552 0 0 1-48.10641-3.187774A82.882128 82.882128 0 0 1 334.426489 521.635772a11.302108 11.302108 0 0 0-15.93887-1.883685 11.15721 11.15721 0 0 0-4.202066 10.722513 33.906325 33.906325 0 0 1 0 5.216358 40.861469 40.861469 0 0 1-4.491864 14.489883 64.624876 64.624876 0 0 1-40.861469 30.863449c-4.92656 1.014292-8.404132 0-12.3164 0.869393a11.302108 11.302108 0 0 0-8.983727 14.489883 72.449413 72.449413 0 0 1-2.753078 38.977784A70.420829 70.420829 0 0 1 221.260507 666.534597a11.15721 11.15721 0 0 0 10.577614 19.706241 70.27593 70.27593 0 0 1 39.847177-5.216358 72.449413 72.449413 0 0 1 35.210414 17.098061 10.577614 10.577614 0 0 0 3.332673 2.46328 11.302108 11.302108 0 0 0 13.475591-3.042875c2.46328-3.042875 3.477572-6.520447 6.810245-10.287817a64.624876 64.624876 0 0 1 47.092118-19.851139 39.122683 39.122683 0 0 1 15.214377 3.622471 32.602236 32.602236 0 0 1 4.491864 2.46328 11.302108 11.302108 0 0 0 17.677656-13.040894 83.316825 83.316825 0 0 1-4.781661-46.802321 92.300552 92.300552 0 0 1 21.300127-43.469648z m172.139804-18.981746a11.15721 11.15721 0 0 0-10.722513 2.318381 10.287817 10.287817 0 0 0-2.318381 2.897977 10.142918 10.142918 0 0 0-1.304089 3.332673 11.302108 11.302108 0 0 0 3.332673 10.432715 92.300552 92.300552 0 0 1 21.300127 43.469648 83.171926 83.171926 0 0 1-5.071459 46.512523 11.302108 11.302108 0 0 0 17.532758 13.040894 28.979765 28.979765 0 0 1 4.636763-2.46328 38.398189 38.398189 0 0 1 14.489882-3.62247 64.624876 64.624876 0 0 1 47.092118 19.851139c3.332673 3.767369 4.346965 7.244941 6.955144 10.287816a11.15721 11.15721 0 0 0 13.475591 3.042876 10.142918 10.142918 0 0 0 3.477572-2.46328A72.449413 72.449413 0 0 1 752.169803 681.02448a70.27593 70.27593 0 0 1 39.267582 4.781661 11.15721 11.15721 0 0 0 11.15721-19.271544 69.986133 69.986133 0 0 1-23.763408-31.587944 72.449413 72.449413 0 0 1-2.753077-38.977784 12.606198 12.606198 0 0 0 0-4.202066 11.302108 11.302108 0 0 0-9.418424-10.142917c-3.767369 0-7.38984 0-12.3164-0.869393A64.624876 64.624876 0 0 1 714.061412 550.615537a40.71657 40.71657 0 0 1-4.491863-14.489883 39.267582 39.267582 0 0 1 0-5.216357 11.302108 11.302108 0 0 0-20.140937-9.273525A82.737229 82.737229 0 0 1 652.044715 548.876751a92.155653 92.155653 0 0 1-48.10641 3.187774z m-11.01231-99.110796a92.300552 92.300552 0 0 0 21.300127-43.469648 83.171926 83.171926 0 0 0-5.071459-46.512523 11.302108 11.302108 0 0 1 17.532758-13.040894 28.979765 28.979765 0 0 0 4.636763 2.608179 38.687986 38.687986 0 0 0 14.489882 3.62247 64.624876 64.624876 0 0 0 47.092118-19.851139c3.332673-3.767369 4.346965-7.244941 6.955144-10.287817a11.15721 11.15721 0 0 1 13.475591-3.042875 10.287817 10.287817 0 0 1 3.477572 2.46328 72.449413 72.449413 0 0 0 35.210414 17.098062 69.841234 69.841234 0 0 0 39.267582-4.781662 11.302108 11.302108 0 0 1 11.157209 19.271544 69.986133 69.986133 0 0 0-23.763407 31.587944 72.449413 72.449413 0 0 0-2.753078 38.977784 12.606198 12.606198 0 0 1 0 4.202066 11.302108 11.302108 0 0 1-9.418423 10.142918c-3.767369 0-7.38984 0-12.3164 0.869393a64.624876 64.624876 0 0 0-40.71657 30.86345 41.006368 41.006368 0 0 0-4.491864 14.489882 39.122683 39.122683 0 0 0 0 5.216358 11.302108 11.302108 0 0 1-19.996038 8.838828A82.592331 82.592331 0 0 0 652.044715 475.123249a91.720957 91.720957 0 0 0-47.961511-3.187774 11.15721 11.15721 0 0 1-13.040895-5.216358 10.142918 10.142918 0 0 1-1.304089-3.332673 11.15721 11.15721 0 0 1 3.332673-10.432715z m-91.28626-39.992076a11.302108 11.302108 0 0 0 7.38984 8.114334 12.3164 12.3164 0 0 0 3.62247 0 12.606198 12.606198 0 0 0 3.622471 0 11.447007 11.447007 0 0 0 7.38984-8.114334 92.300552 92.300552 0 0 1 26.806283-39.992076 82.737229 82.737229 0 0 1 43.469648-19.126645 11.302108 11.302108 0 0 0 9.708221-12.751097 11.15721 11.15721 0 0 0-7.244941-8.983727 30.86345 30.86345 0 0 1-4.491864-2.753078 39.267582 39.267582 0 0 1-10.722513-11.302108 64.624876 64.624876 0 0 1-6.23065-50.714589c1.593887-4.781661 4.057167-7.38984 5.506156-11.012311a11.302108 11.302108 0 0 0-4.057167-13.330692 10.722513 10.722513 0 0 0-3.912269-1.738785 72.449413 72.449413 0 0 1-32.457337-21.879723 70.27593 70.27593 0 0 1-15.504174-36.369605 11.302108 11.302108 0 0 0-22.314419 0 70.131032 70.131032 0 0 1-15.359276 36.369605 72.449413 72.449413 0 0 1-32.602235 21.879723 11.302108 11.302108 0 0 0-7.969436 14.489882c1.448988 3.622471 3.912268 6.230649 5.506156 11.012311a64.769775 64.769775 0 0 1-6.23065 50.714589 39.267582 39.267582 0 0 1-10.722513 11.302108 35.500212 35.500212 0 0 1-4.491863 2.753078 11.302108 11.302108 0 0 0-7.244942 8.983727 11.447007 11.447007 0 0 0 9.563323 12.751097 82.737229 82.737229 0 0 1 43.469647 19.126645 92.300552 92.300552 0 0 1 25.357295 40.426772z" fill="#3CA3A9" p-id="919"></path><path d="M511.927551 455.417009a56.510542 56.510542 0 1 0 56.510542 56.510542 56.510542 56.510542 0 0 0-56.510542-56.510542zM359.349087 247.776992a33.906325 33.906325 0 1 0 46.367624 13.040894 33.906325 33.906325 0 0 0-46.367624-12.461299zM206.770624 511.927551A33.906325 33.906325 0 1 0 240.676949 478.166124a33.906325 33.906325 0 0 0-33.906325 33.906325zM359.349087 776.223008a33.906325 33.906325 0 1 0-12.3164-46.222725 34.051224 34.051224 0 0 0 12.3164 46.222725z m305.156927 0a33.906325 33.906325 0 1 0-46.367624-12.461299 33.906325 33.906325 0 0 0 46.367624 12.461299z m152.578463-264.295457A33.906325 33.906325 0 1 0 782.453658 545.833876a33.906325 33.906325 0 0 0 33.906325-33.906325zM664.506014 247.776992a33.906325 33.906325 0 1 0 12.461299 46.367624 33.906325 33.906325 0 0 0-12.461299-46.367624z" fill="#D84D32" p-id="920"></path></svg>